<svg xmlns="http://www.w3.org/2000/svg" viewBox="0 0 128 128"><defs><linearGradient id="g" x1="18" y1="16" x2="108" y2="112"><stop offset="0" stop-color="#fff0ea"/><stop offset=".58" stop-color="#ff9f8f"/><stop offset="1" stop-color="#d96557"/></linearGradient><filter id="shadow" x="-25%" y="-25%" width="150%" height="150%"><feDropShadow dx="0" dy="8" stdDeviation="7" flood-color="#66577d" flood-opacity=".18"/></filter></defs><rect width="128" height="128" rx="32" fill="none"/><g filter="url(#shadow)"><path d="M67 20c7 20-11 26 2 41 4-10 12-16 18-23 10 22 13 43-1 58-14 15-42 14-54-4-13-20 0-38 13-52-1 14 7 20 14 22-7-17 1-29 8-42Z" fill="#ff7a45" stroke="#c7523c" stroke-width="5"/><path d="M61 77c9-12 19-3 19 8 0 10-8 17-17 17s-17-6-17-17c0-8 6-15 15-8Z" fill="#ffd36a"/></g></svg>